<svg width="16" height="15" viewBox="0 0 16 15" fill="none" xmlns="http://www.w3.org/2000/svg">
<path d="M6.39795 14.4277C5.9165 14.4277 5.55957 14.2534 5.23584 13.8633L1.18506 8.91602C0.919434 8.60889 0.819824 8.33496 0.819824 8.02783C0.819824 7.33057 1.33447 6.82422 2.04834 6.82422C2.47168 6.82422 2.77051 6.97363 3.04443 7.31396L6.36475 11.4644L12.8726 1.17139C13.1714 0.706543 13.4702 0.532227 13.9517 0.532227C14.6655 0.532227 15.1719 1.03027 15.1719 1.71924C15.1719 1.97656 15.0889 2.25879 14.8979 2.55762L7.56836 13.8218C7.29443 14.2285 6.9043 14.4277 6.39795 14.4277Z" fill="white"/>
</svg>
